<?xml version="1.0" ?><!DOCTYPE svg  PUBLIC '-//W3C//DTD SVG 1.1//EN'  'http://www.w3.org/Graphics/SVG/1.1/DTD/svg11.dtd'><svg height="100%" style="fill-rule:evenodd;clip-rule:evenodd;stroke-linejoin:round;stroke-miterlimit:2;" version="1.1" viewBox="0 0 32 32" width="100%" xml:space="preserve" xmlns="http://www.w3.org/2000/svg" xmlns:serif="http://www.serif.com/" xmlns:xlink="http://www.w3.org/1999/xlink"><path d="M16,1.5c-8.003,0 -14.5,6.497 -14.5,14.5c0,8.003 6.497,14.5 14.5,14.5c8.003,-0 14.5,-6.497 14.5,-14.5c0,-8.003 -6.497,-14.5 -14.5,-14.5Zm0,1c7.451,0 13.5,6.049 13.5,13.5c0,7.451 -6.049,13.5 -13.5,13.5c-7.451,-0 -13.5,-6.049 -13.5,-13.5c0,-7.451 6.049,-13.5 13.5,-13.5Z"/><path d="M16,13.707l-5.646,5.647c-0.196,0.195 -0.512,0.195 -0.708,-0c-0.195,-0.196 -0.195,-0.512 0,-0.708l6,-6c0.196,-0.195 0.512,-0.195 0.708,0l6,6c0.195,0.196 0.195,0.512 -0,0.708c-0.196,0.195 -0.512,0.195 -0.708,-0l-5.646,-5.647Z"/></svg>